# xmcd
# 
# Track frame offsets:
#     150
#     27455
#     43209
#     71633
#     96543
#     129575
#     152965
#     173277
#     191357
# 
# Disc length: 2889
# 
# Revision: 5
# Processed by: cddbd v1.5.2PL0 Copyright (c) Steve Scherf et al.
# Submitted via: fre:ac v1.1beta1pre5
# 
DISCID=7a0b4709
DTITLE=The Robert Cray Band - This Time
DYEAR=2009
DGENRE=Blues
TTITLE0=Chicken in the Kitchen
TTITLE1=I Can't Fail
TTITLE2=I Love 2009
TTITLE3=That's What Keeps Me Rockin'
TTITLE4=This Time
TTITLE5=To Be True
TTITLE6=Forever Goodbye
TTITLE7=Trouble and Pain
TTITLE8=Truce
EXTD=
EXTT0=
EXTT1=
EXTT2=
EXTT3=
EXTT4=
EXTT5=
EXTT6=
EXTT7=
EXTT8=
PLAYORDER=
